<?xml version="1.0" standalone="no"?>
<!DOCTYPE svg PUBLIC "-//W3C//DTD SVG 1.1//EN" "http://www.w3.org/Graphics/SVG/1.1/DTD/svg11.dtd" >
<!--
2013-9-30: Created.
-->
<svg>
<metadata>
Created by iconfont
</metadata>
<defs>

<font id="gtmc_chat" horiz-adv-x="1024" >
  <font-face
    font-family="gtmc_chat"
    font-weight="500"
    font-stretch="normal"
    units-per-em="1024"
    ascent="896"
    descent="-128"
  />
    <missing-glyph />
    
    <glyph glyph-name="x" unicode="x" horiz-adv-x="1001"
d="M281 543q-27 -1 -53 -1h-83q-18 0 -36.5 -6t-32.5 -18.5t-23 -32t-9 -45.5v-76h912v41q0 16 -0.5 30t-0.5 18q0 13 -5 29t-17 29.5t-31.5 22.5t-49.5 9h-133v-97h-438v97zM955 310v-52q0 -23 0.5 -52t0.5 -58t-10.5 -47.5t-26 -30t-33 -16t-31.5 -4.5q-14 -1 -29.5 -0.5
t-29.5 0.5h-32l-45 128h-439l-44 -128h-29h-34q-20 0 -45 1q-25 0 -41 9.5t-25.5 23t-13.5 29.5t-4 30v167h911zM163 247q-12 0 -21 -8.5t-9 -21.5t9 -21.5t21 -8.5q13 0 22 8.5t9 21.5t-9 21.5t-22 8.5zM316 123q-8 -26 -14 -48q-5 -19 -10.5 -37t-7.5 -25t-3 -15t1 -14.5
t9.5 -10.5t21.5 -4h37h67h81h80h64h36q23 0 34 12t2 38q-5 13 -9.5 30.5t-9.5 34.5q-5 19 -11 39h-368zM336 498v228q0 11 2.5 23t10 21.5t20.5 15.5t34 6h188q31 0 51.5 -14.5t20.5 -52.5v-227h-327z" />
    

    
    <glyph glyph-name="tupian" unicode="&#58896;" d="M951.44-23.502719999999954L72.60032-23.502719999999954c-22.41984 0-40.56192 18.14592-40.56192 40.56384L32.0384 749.4528c0 22.42176 18.14208 40.56384 40.56192 40.56384l878.83968 0c22.41792 0 40.56-18.14208 40.56-40.56384l0-732.39168C992-5.356800000000021 973.85792-23.502719999999954 951.44-23.502719999999954L951.44-23.502719999999954zM113.16224 57.62688000000003l797.71392 0L910.87616 708.88896 113.16224 708.88896 113.16224 57.62688000000003 113.16224 57.62688000000003zM924.8192 123.02207999999996c-9.34848 0-18.77568 3.21024-26.3808 9.74592l-163.04256 139.75296-202.89792-135.23712L275.09888 414.17856l-173.34336-178.97472c-15.6864-16.15872-41.43552-16.47744-57.36-0.9504-16.16256 15.6096-16.56 41.28-0.9504 57.36192l232.84032 240.44736 268.65024-289.01376 196.55808 131.03616 209.70624-179.68128c17.03616-14.57472 19.01568-40.2048 4.43712-57.19872C947.55584 127.81823999999995 936.22976 123.02207999999996 924.8192 123.02207999999996L924.8192 123.02207999999996zM560.30528 387.59424c-80.17536 0-145.45536 65.24352-145.45536 145.4592 0 80.17344 65.28 145.41312 145.45536 145.41312 80.17728 0 145.38048-65.23968 145.38048-145.41312C705.68576 452.83968 640.48256 387.59424 560.30528 387.59424L560.30528 387.59424zM560.30528 597.3408c-35.41248 0-64.32768-28.8384-64.32768-64.28736 0-35.45472 28.9152-64.33152 64.32768-64.33152s64.25088 28.8768 64.25088 64.33152C624.55616 568.50432 595.71968 597.3408 560.30528 597.3408L560.30528 597.3408z"  horiz-adv-x="1024" />

    
    <glyph glyph-name="biaoqing" unicode="&#59041;" d="M511.696078-42.10013866999998c-247.044536 0-447.313745 200.268186-447.313745 447.311699S264.651542 852.52428233 511.696078 852.52428233s447.312722-200.268186 447.312722-447.311699S758.739591-42.10013866999998 511.696078-42.10013866999998zM511.696078 796.76330333c-216.248136 0-391.550721-175.303608-391.550721-391.550721 0-216.248136 175.301562-391.550721 391.550721-391.550721S903.245775 188.96444732999998 903.245775 405.21258333C903.245775 621.4596953299999 727.944214 796.76330333 511.696078 796.76330333zM512.666172 144.19889433000003c-107.765399 0-197.940165 74.597999-221.266429 174.655855l442.533882 0C710.606337 218.79689333 620.431571 144.19889433000003 512.666172 144.19889433000003zM640.746246 443.05342333c-26.794249 0-48.51597 21.720697-48.51597 48.514947 0 26.794249 21.720697 48.514947 48.51597 48.514947 26.794249 0 48.514947-21.720697 48.514947-48.514947C689.262216 464.77514333 667.540496 443.05342333 640.746246 443.05342333zM384.585075 443.05342333c-26.794249 0-48.514947 21.720697-48.514947 48.514947 0 26.794249 21.720697 48.514947 48.514947 48.514947 26.794249 0 48.514947-21.720697 48.514947-48.514947C433.101045 464.77514333 411.379325 443.05342333 384.585075 443.05342333z"  horiz-adv-x="1024" />

    
    <glyph glyph-name="textzoom" unicode="&#58905;" d="M205.749744 494.45252372l208.58716053 0 0 41.69657386L205.749744 536.1490965200001 205.749744 494.45252372zM415.56756907 411.05937705L205.749744 411.05937705 205.749744 369.32108585000003l187.7284448 0C399.58979307 383.96390505 407.07807147 397.85580905 415.56756907 411.05937705zM205.749744 285.86536318000003L205.749744 244.16878931999997l167.91266453 0C373.1409408 251.09388372 372.61947307 257.99811838000005 372.61947307 265.02750612c0 7.02938773 0.52146773 13.9336224 1.04293546 20.8169984L205.749744 285.84450452zM958.14449173-19.88169707999998l-108.59047573 108.6113344c-9.07354133-10.59622827-18.8979968-20.48325867-29.494224-29.51508374l108.56961707-108.56961706c8.15575787-8.1348992 21.3593248-8.1348992 29.51508373 0C966.3002496-41.199304549999965 966.3002496-27.891444279999973 958.14449173-19.88169707999998zM430.33554027 98.15777705000005L143.17359573 98.15777705000005c-23.0280224 0-41.71743253 18.68940907-41.71743253 41.71743253l0 625.7614816c0 23.06973973 18.68940907 41.71743253 41.71743253 41.71743254l375.4568896 0L518.63048533 619.6256789199999c0-46.07690347 37.35796053-83.49744 83.434864-83.49744l166.869728 0 0-30.7457472c14.78882987-7.7177248 28.7015936-16.77040747 41.71743254-26.94946134l0 78.5956416-7.38398507 7.38398507 1.27238187 7.40484373L547.04005653 849.05069652 456.05433707 849.05069652c-152.6232256 0-312.88074133 0-312.88074134 0-46.07690347 0-83.434864-37.3788192-83.434864-83.434864l0-625.7614816c0-46.1186208 37.35796053-83.434864 83.434864-83.434864l327.3775488 0C455.65802133 68.80956372000003 442.26672533 82.88919678000002 430.33554027 98.15777705000005zM560.34791787 772.70779625L742.96597653 577.90824638 602.06534933 577.90824638c-23.0280224 0-41.71743253 18.68940907-41.71743253 41.71743254L560.34791787 772.70779625zM643.78278187 494.45252372c-126.71669973 0-229.44587627-102.6874592-229.44587627-229.4250176C414.33690453 138.24822931999995 517.06608107 35.58162877999996 643.78278187 35.58162877999996 770.4994816 35.58162877999996 873.22865813 138.24822931999995 873.22865813 265.02750612 873.22865813 391.76506452 770.4994816 494.45252372 643.78278187 494.45252372zM643.78278187 77.25734397999997c-103.68867733 0-187.7284448 84.0814848-187.7284448 187.7910208 0 103.64696 84.03976747 187.74930347 187.7284448 187.74930347s187.7284448-84.10234347 187.7284448-187.74930347C831.51122667 161.33882772000004 747.4714592 77.25734397999997 643.78278187 77.25734397999997zM414.33690453 661.30139305L205.749744 661.30139305 205.749744 619.6256789199999l208.58716053 0L414.33690453 661.30139305zM497.7717696 265.02750612c0-7.1128224 0.68833813-14.03791573 1.6686976-20.85871574L664.6414976 244.16878931999997l0 41.6757152-165.20103147 0C498.46010667 279.02370452 497.7717696 272.07775145000005 497.7717696 265.02750612zM541.6793664 369.32108585000003L664.6414976 369.32108585000003l0 40.09045227c-6.84165867 0.93864213-13.7458944 1.6686976-20.85871573 1.6686976C604.02606827 411.05937705 568.02392533 395.08159998 541.6793664 369.32108585000003z"  horiz-adv-x="1024" />

    
    <glyph glyph-name="icon012" unicode="&#58891;" d="M512 779.657248c53.43704999 0 105.247043-10.453073 153.99120999-31.07064599 47.107901-19.924795 89.426729-48.460712 125.78070501-84.81468802s64.889893-78.672804 84.814688-125.78070499c20.61654999-48.744167 31.07064599-100.55416 31.070646-153.99121s-10.453073-105.247043-31.070646-153.99121c-19.924795-47.107901-48.460712-89.426729-84.814688-125.780705-36.353976-36.353976-78.672804-64.889893-125.78070501-84.814688-48.744167-20.61654999-100.55416-31.07064599-153.99120999-31.07064599-53.43704999 0-105.247043 10.453073-153.99120999 31.07064599-47.107901 19.924795-89.426729 48.460712-125.78070501 84.814688-36.353976 36.353976-64.889893 78.672804-84.814688 125.780705-20.61654999 48.744167-31.07064599 100.55416-31.070646 153.99121s10.453073 105.247043 31.070646 153.99121c19.924795 47.107901 48.460712 89.426729 84.814688 125.78070501s78.672804 64.889893 125.78070501 84.814688C406.752957 769.203152 458.56295001 779.657248 512 779.657248M512 833.610044c-248.312412 0-449.610044-201.297632-449.610044-449.610044s201.297632-449.610044 449.610044-449.610044 449.610044 201.297632 449.610044 449.610044S760.312412 833.610044 512 833.610044L512 833.610044zM632.637568 265.647475L391.512858 265.647475c-6.922666 0-12.518105-5.293563-12.518105-12.217253s5.595438-12.518105 12.518105-12.518105l241.124709 0c6.922666 0 12.669554 5.595438 12.669554 12.518105S639.560234 265.647475 632.637568 265.647475L632.637568 265.647475zM378.994754 428.553729L378.994754 428.553729c0-6.77224 5.595438-12.367679 12.518105-12.367679l241.124709 0c6.922666 0 12.669554 5.595438 12.669554 12.367679 0 6.77224-5.746888 12.518105-12.669554 12.518105L391.512858 441.071833C384.590192 441.072857 378.994754 435.325969 378.994754 428.553729L378.994754 428.553729zM742.076072 497.632013L742.076072 497.632013 591.974449 647.718287c-3.815909 3.831258-8.974395 6.04774-14.72026 6.04774L331.424318 653.766027c-15.172561 0-29.018917-6.334265-39.184441-16.349363-10.015098-9.727549-16.349363-23.573905-16.349363-39.184441l0-428.314019c0-15.32401 6.334265-29.320793 16.349363-39.334867l0.150426 0c10.015098-10.015098 23.860431-16.349363 39.034015-16.349363l361.151363 0c15.172561 0 28.732391 6.04774 38.59604 15.912411l0.738827 0.588401c9.863648 9.863648 16.198937 24.01188 16.198937 39.184441L748.109486 483.047854C748.109486 488.355743 746.043431 493.650329 742.076072 497.632013L742.076072 497.632013zM589.773318 591.15913L589.773318 591.15913l95.743598-95.729272-73.496921 0c-6.199189 0-11.644201 2.50403-15.625886 6.622838l-0.588401 0.435928c-3.529383 4.13211-6.033413 9.577123-6.033413 15.32401L589.772294 591.15913 589.773318 591.15913zM706.571441 169.91922699999998L706.571441 169.91922699999998c0-3.831258-1.477654-7.223518-3.981684-10.015098l0 0c-2.50403-2.367931-6.033413-3.981684-10.015098-3.981684L331.424318 155.92244500000004c-3.679809 0-7.209192 1.613754-9.863648 3.981684l0.286526 0c-2.639107 2.791579-4.26821 6.183839-4.26821 10.015098L317.578985 598.232223c0 3.831258 1.629103 7.360641 4.26821 9.863648 2.367931 2.654456 5.897314 3.981684 9.577123 3.981684L564.736085 612.0775550000001l0-94.265944c0-12.518105 5.158487-24.162306 13.408381-32.698726l0.588401-0.738827c8.53642-8.385994 20.617573-13.84431 33.287127-13.84431l94.552469 0L706.572464 169.91922699999998 706.571441 169.91922699999998zM632.637568 353.579153L632.637568 353.579153 391.512858 353.579153c-6.922666 0-12.518105-5.746888-12.518105-12.80463 0-6.485715 5.595438-12.231579 12.518105-12.231579l241.124709 0c6.922666 0 12.669554 5.746888 12.669554 12.231579C645.307122 347.832266 639.560234 353.579153 632.637568 353.579153L632.637568 353.579153z"  horiz-adv-x="1024" />

    
    <glyph glyph-name="tupian1" unicode="&#58884;" d="M329.277422 438.844096c54.092989 0 97.937566 42.965557 97.937566 95.970772 0 53.004191-43.843554 95.979982-97.937566 95.979982-54.090942 0-97.937566-42.97579-97.937566-95.979982C231.339856 481.809653 275.185456 438.844096 329.277422 438.844096zM902.912178 767.897414 119.410624 767.897414c-30.90487 0-55.963593-24.555256-55.963593-54.846142l0-658.107659c0-30.286794 25.058722-54.842049 55.963593-54.842049l783.501554 0c30.906917 0 55.965639 24.555256 55.965639 54.842049L958.877817 713.051271C958.877817 743.343181 933.820118 767.897414 902.912178 767.897414zM874.932939 137.207198c0-30.286794-25.058722-54.842049-55.967686-54.842049L203.355501 82.365148c-30.90487 0-55.963593 24.555256-55.963593 54.842049L147.391908 630.794849c0 30.284747 25.058722 54.837956 55.963593 54.837956l615.608729 0c30.908964 0 55.967686-24.553209 55.967686-54.837956L874.931916 137.207198zM483.177558 219.474876l-27.981285 0-111.927185 137.102564L175.374216 137.207198l671.574369 0L679.053714 603.370243 483.177558 219.474876z"  horiz-adv-x="1024" />

    
    <glyph glyph-name="icon" unicode="&#58955;" d="M512.133 271.019l-292.16 292.155c-12.27 12.28-32.186 12.28-44.457 0-12.281-12.27-12.281-32.186 0-44.457l314.388-314.388c12.27-12.28 32.186-12.28 44.457 0l314.387 314.388c6.14 6.136 9.211 14.183 9.211 22.228s-3.071 16.092-9.211 22.228c-12.27 12.28-32.186 12.28-44.457 0l-292.159-292.155z"  horiz-adv-x="1024" />

    
    <glyph glyph-name="chacha" unicode="&#58931;" d="M573.202452 383.976052 1009.152768 821.97455c16.90618 16.97561 16.83675 44.469848-0.13886 61.376028-17.010324 16.940895-44.469848 16.83675-61.376028-0.13886l-435.672596-437.686063L76.327402 883.177003c-16.90618 17.010324-44.365703 17.079754-61.376028 0.13886-16.97561-16.90618-17.045039-44.365703-0.13886-61.376028l435.950316-437.963783L14.812514-53.987731c-16.90618-16.97561-16.83675-44.469848 0.13886-61.376028 8.470447-8.435732 19.544516-12.636241 30.618584-12.636241 11.143498 0 22.286997 4.269939 30.757444 12.775101l435.672596 437.686063 435.672596-437.686063c8.470447-8.539877 19.613946-12.775101 30.757444-12.775101 11.074068 0 22.148137 4.200509 30.618584 12.636241 16.97561 16.90618 17.045039 44.365703 0.13886 61.376028L573.202452 383.976052z"  horiz-adv-x="1024" />

    
    <glyph glyph-name="up-copy" unicode="&#58885;" d="M804 493.984c0-10.015-4-18.016-10.015-26.016l-256-256c-8-8-16-10.016-26.016-10.015s-18.016 2.016-26.016 10.015l-256 256c-6.016 8-10.016 16-10.015 26.016s4 18.016 10.015 26.016c8 6.016 16 10.016 26.016 10.015h512c10.015 0 18.016-4 26.016-10.015 6.016-8 10.016-16 10.015-26.016z"  horiz-adv-x="1024" />

    
    <glyph glyph-name="tuige" unicode="&#58969;" d="M642.116 388.796l69.093 69.093c10.693 10.693 8.527 22.877 8.527 22.877 0 13.13-8.258 19.763-8.258 19.763-9.07 9.07-20.17 9.204-20.17 9.204-14.486 0-23.015-9.204-23.015-9.204l-69.084-68.928-69.084 68.928c0 0-8.527 9.204-23.012 9.204 0 0-11.099-0.134-20.17-9.204 0 0-8.259-6.633-8.259-19.763 0 0-2.164-12.185 8.528-22.877l69.093-69.093-68.324-68.172c-9.477-7.714-9.477-23.011-9.477-23.011 0-11.911 9.34-21.522 9.34-21.522 8.326-8.325 20.036-7.58 20.036-7.58 15.295 0 22.336 8.391 22.336 8.391l68.991 68.993 68.993-68.993c0 0 7.041-8.391 22.336-8.391 0 0 11.709-0.746 20.035 7.58 0 0 9.341 9.612 9.341 21.522 0 0 0 15.297-9.477 23.011l-68.321 68.172L642.116 388.796zM989.365 177.612 989.365 597.939c-4.012 118.326-118.829 121.334-118.829 121.334L331.549 719.273c-15.04 0-23.733-8.524-23.733-8.524L36.484 410.922c-8.899-9.15-8.524-21.059-8.524-21.059 0-16.044 9.278-25.069 9.278-25.069l268.24-297.154c10.361-10.361 22.395-9.193 22.395-9.193l542.665 0c121.837 6.518 118.829 119.164 118.829 119.164L989.365 177.612zM953.467 165.804c0 0-1.767-62.515-62.163-62.515L330.43 103.289 73.301 389.112l259.401 285.824 558.602 0c0 0 62.163-6.36 62.163-65.696l0-443.439L953.467 165.804z"  horiz-adv-x="1024" />

    
    <glyph glyph-name="triangle_right" unicode="&#58886;" d="M402.016 676c10.015 0 18.016-4 26.016-10.015l256-256c8-8 10.016-16 10.015-26.016s-2.016-18.016-10.015-26.016l-256-256c-8-6.016-16-10.016-26.016-10.015s-18.016 4-26.016 10.015c-6.016 8-10.016 16-10.015 26.016v512c0 10.015 4 18.016 10.015 26.016 8 6.016 16 10.016 26.016 10.015z"  horiz-adv-x="1024" />

    
    <glyph glyph-name="dot" unicode="&#58880;" d="M377.804 389.483c0-79.565 64.5-144.068 144.067-144.068s144.067 64.5 144.067 144.067c0 0 0 0 0 0 0 79.566-64.5 144.067-144.067 144.067-79.566 0-144.067-64.5-144.067-144.067 0 0 0 0 0 0z"  horiz-adv-x="1024" />

    
    <glyph glyph-name="tupian2" unicode="&#58903;" d="M32 804.0096v-840.0288h960V804.0096H32z m864.0288-744.048H127.9808V708.0288h768.0528v-648.0672zM836.0384 119.952H187.9616v144.0672l204.0576 299.9424 246.5568-299.9424L836.0384 384v-264.048zM655.9712 533.9712c0-49.7184 40.3584-89.9808 89.9808-89.9808 49.7184 0 90.0768 40.2624 90.0768 89.9808S795.6704 623.952 745.952 623.952c-49.6128 0-89.9808-40.2624-89.9808-89.9808z"  horiz-adv-x="1024" />

    
    <glyph glyph-name="text" unicode="&#58893;" d="M512.00503349-66C263.87377315-66 62.00503349 135.86873964999995 62.00503349 383.97757471 62.00503349 632.13126035 263.87377315 834 512.00503349 834S962.00503349 632.13126035 962.00503349 383.97757471c0-248.10883506-201.86873965-449.97757471-450-449.97757471zM512.00503349 811.57512364C276.22988018 811.57512364 84.42990987 619.7527280300001 84.42990987 383.97757471 84.42990987 148.22484667000003 276.25230459-43.59754805 512.00503349-43.59754805S939.58015625 148.22484667000003 939.58015625 383.97757471C939.58015625 619.7527280300001 747.78018682 811.57512364 512.00503349 811.57512364zM534.42990987 402.50052305h-134.54925997v-22.22305225h134.54925997v22.22305225z m66.8261329 231.71625088h-32.15727334l8.85782637-9.30632432H377.45577354c-25.40738497 0-44.84975362-10.96576435-44.84975362-35.96950195v-430.24368341c0-25.0037376 20.58603662-45.29825068 45.99342247-45.29825068H700.5982458c25.40738497 0 35.65555401 19.44236778 35.65555401 44.46852979V458.67483955l2.19763828-2.30976299 4.77649863 27.335925-141.97189394 150.51577237z m0.44849707-34.22036163l103.31140693-108.51397822H624.12941621a21.9763793 21.9763793 0 0 0-22.42487637 22.22305225v86.29092597z m112.1243836-442.10644365c0-12.51308144-0.51577207-21.86425459-13.23067764-21.86425459H378.59944238a22.87337432 22.87337432 0 0 0-23.00792343 22.6715502V588.94094766c0 12.51308144 9.1493499 13.72402442 21.86425459 13.72402441h201.82388994v-88.95948574c0-25.0037376 19.44236778-44.46853066 44.84975274-44.46852979h89.69950722v-311.34698789z m-313.94827354 155.65106866h269.09851992v22.24547753H399.8806499v-22.24547753z m0-66.69158291h269.09851992v22.22305312H399.8806499v-22.22305312z m134.54925997 222.38750214h-134.54925997v-22.22305312h134.54925997v22.22305312z"  horiz-adv-x="1027" />

    
    <glyph glyph-name="downtriangular-arrow" unicode="&#58894;" d="M220 274.016c0 10.015 4 18.016 10.015 26.016l256 256c8 8 16 10.016 26.016 10.015s18.016-2.016 26.016-10.015l256-256c6.016-8 10.016-16 10.015-26.016s-4-18.016-10.015-26.016c-8-6.016-16-10.016-26.016-10.015h-512c-10.015 0-18.016 4-26.016 10.015-6.016 8-10.016 16-10.015 26.016z"  horiz-adv-x="1024" />

    
    <glyph glyph-name="tupian3" unicode="&#59009;" d="M362.66704983 685.34109375c-49.94578125 0-90.3740625-40.4409375-90.3740625-90.40359375 0-49.899375 40.42828125-90.40359375 90.3740625-90.40359375 49.764375 0 90.3740625 40.5 90.3740625 90.40359375 0 49.9584375-40.6096875 90.40359375-90.3740625 90.40359375zM754.28939358 805.875H272.29298733C172.63767483 805.875 91.54486233 724.75265625 91.54486233 625.07203125v-482.1440625c0-10.665-3.189375-16.09453125 0-23.65453125v-10.69453125c2.4721875-9.230625 6.45046875-17.78625 11.15015625-25.970625C127.69111233 12.636093749999986 193.84954983-37.875 272.29298733-37.875h481.99640625c88.745625 0 162.3121875 64.3696875 177.49546875 148.79953125 1.99125 8.1421875 3.25265625 16.5796875 3.25265625 25.3125V625.07203125C935.03751858 724.75265625 853.94048733 805.875 754.28939358 805.875z m120.504375-459.84375c-24.16078125 34.59375-46.03078125 65.390625-60.85546875 85.40015625-60.5559375 81.7846875-132.66703125 106.9790625-205.9340625 13.0190625l-94.22578125-132.58265625c-68.26359375 68.27625-154.845 75.39328125-226.41609375-6.4546875l-135.56109375-136.26140625V625.07203125c0 66.2934375 54.22359375 120.53390625 120.4959375 120.53390625h481.99640625c66.2765625 0 120.4959375-54.24046875 120.4959375-120.53390625V346.03125h0.00421875z"  horiz-adv-x="1025" />

    
    <glyph glyph-name="sousuo" unicode="&#58887;" d="M862.609 79.045l-136.228 136.226c39.168 46.138 67.052 103.046 78.678 165.663-3.424-29.229 6.121 18.031 6.121 66.731 0 48.701-9.545 95.96-28.369 140.467-18.176 42.973-44.19 81.56-77.319 114.689-33.13 33.129-71.717 59.144-114.69 77.32-44.507 18.825-91.767 28.37-140.467 28.37-48.701 0-95.96-9.545-140.467-28.37-42.973-18.176-81.56-44.19-114.689-77.32-33.13-33.129-59.144-71.717-77.32-114.689-18.825-44.507-28.37-91.767-28.37-140.467 0-48.7 9.545-95.96 28.37-140.467 18.176-42.974 44.19-81.561 77.32-114.69 33.129-33.129 71.717-59.144 114.689-77.319 44.507-18.824 91.767-28.369 140.467-28.369 48.7 0 95.96 9.545 140.467 28.369 32.78 13.864 62.997 32.303 90.197 54.968 0.063-0.064 0.122-0.132 0.186-0.195l136.169-136.17c6.25-6.25 14.438-9.373 22.628-9.373 8.188 0 16.38 3.125 22.627 9.372 12.496 12.496 12.496 32.758 0 45.254zM450.335 148.511c-79.907 0-155.031 31.118-211.534 87.62-56.503 56.503-87.62 131.627-87.62 211.534s31.117 155.031 87.62 211.534c56.502 56.503 131.626 87.62 211.534 87.62s155.031-31.117 211.534-87.62c56.502-56.502 87.62-131.626 87.62-211.534s-31.118-155.031-87.62-211.534c-56.503-56.502-131.627-87.62-211.534-87.62z"  horiz-adv-x="1024" />

    
    <glyph glyph-name="fasong" unicode="&#58995;" d="M108.90752 53.55008c-0.59904 0-1.20832 0.04096-1.81248 0.09216a19.85536 19.85536 0 0 0-18.07872 19.46112c-2.29376 139.13088 35.84 249.63072 113.3568 328.43264 50.37056 51.20512 115.96288 87.79776 194.9696 108.76928 49.64352 13.16864 92.46208 16.80896 117.00736 17.7152V699.51488c0 7.4752 4.19328 14.32064 10.85952 17.71008s14.66368 2.75456 20.71552-1.64352l380.98944-277.45792a19.87584 19.87584 0 0 0-0.03072-32.1536l-380.99456-276.1984a19.88608 19.88608 0 0 0-31.5392 16.09216v161.51552c-137.13408-3.584-246.51264-44.48256-317.19424-118.83008-55.50592-58.38336-68.52608-117.80608-68.79232-119.05536a19.87584 19.87584 0 0 0-19.456-15.94368z m425.31328 293.82656a19.87072 19.87072 0 0 0 19.87072-19.87584v-142.68928L881.408 422.0928l-327.31648 238.3616v-152.1152a19.8912 19.8912 0 0 0-20.61312-19.85536c-0.02048 0-1.82272 0.06144-5.10976 0.06144-30.83264 0-190.09024-5.53984-297.66144-114.88256-49.9712-50.80064-81.75104-116.992-94.98112-197.53984a348.01152 348.01152 0 0 0 30.848 37.93408c36.50048 38.95296 82.0992 69.94432 135.54176 92.1088 65.9456 27.34592 144.03584 41.216 232.10496 41.21088z"  horiz-adv-x="1024" />

    
    <glyph glyph-name="icon1" unicode="&#58881;" d="M511.867 496.982l292.16-292.155c12.27-12.28 32.186-12.28 44.457 0 12.281 12.27 12.281 32.186 0 44.457l-314.388 314.388c-12.27 12.28-32.186 12.28-44.457 0l-314.387-314.388c-6.14-6.136-9.211-14.183-9.211-22.228s3.071-16.092 9.211-22.228c12.27-12.28 32.186-12.28 44.457 0l292.159 292.155z"  horiz-adv-x="1024" />

    
    <glyph glyph-name="jia" unicode="&#58910;" d="M512-76c-62.095 0-122.338 12.164-179.056 36.153-54.778 23.169-103.971 56.335-146.213 98.577s-75.409 91.436-98.578 146.213C64.164 261.66099999999994 52 321.904 52 383.999c0 62.095 12.164 122.338 36.153 179.056 23.169 54.778 56.335 103.971 98.578 146.214 42.242 42.242 91.436 75.409 146.213 98.578C389.662 831.836 449.905 844 512 844c62.095 0 122.338-12.164 179.056-36.153 54.777-23.169 103.971-56.336 146.213-98.578 42.242-42.243 75.409-91.436 98.578-146.214C959.836 506.337 972 446.094 972 383.999c0-62.095-12.164-122.338-36.153-179.056-23.169-54.777-56.336-103.971-98.578-146.213s-91.436-75.408-146.213-98.577C634.338-63.83600000000001 574.095-76 512-76z m0 900C269.383 824 72 626.616 72 383.999 72 141.38300000000004 269.383-56 512-56s440 197.383 440 439.999C952 626.616 754.617 824 512 824zM724.86343111 351.92604444999995H528.91761778v-195.89802667h-67.85024V351.92604444999995H265.05443555v64.0045511h196.01294223V611.97312h67.85024v-196.04252445h195.94581333z"  horiz-adv-x="1024" />

    
    <glyph glyph-name="text1" unicode="&#58906;" d="M262.00000039 317.33333319999997h497.49999961a16.6666667 16.6666667 0 0 1 0 33.3333334H262.00000039a16.6666667 16.6666667 0 0 1 0-33.3333334z m499.99999922-100.0000002H262.00000039a16.6666667 16.6666667 0 0 1 0-33.33333339h499.99999922a16.6666667 16.6666667 0 0 1 0 33.33333339zM512 834a450 450 0 1 1 450-450A450 450 0 0 1 512 834z m0-866.6666666a416.6666666 416.6666666 0 1 0 416.6666666 416.6666666 416.6666666 416.6666666 0 0 0-416.6666666-416.6666666zM262.00000039 584.00000039h497.49999961a16.6666667 16.6666667 0 0 1 0 33.33333252H262.00000039a16.6666667 16.6666667 0 0 1 0-33.33333252z m499.99999922-100.0000002H262.00000039a16.6666667 16.6666667 0 0 1 0-33.33333339h499.99999922a16.6666667 16.6666667 0 0 1 0 33.33333339z"  horiz-adv-x="1024" />

    
    <glyph glyph-name="biaoqing1" unicode="&#59072;" d="M350.09454 464.436984a47.985898 47.985898 0 0 1 42.393529 23.685445 47.984874 47.984874 0 0 1 0.02149 48.559972 47.995107 47.995107 0 0 1-42.373064 23.719215c-26.112728-0.529049-47.013757-21.843494-47.021943-47.960315-0.011256-26.120914 20.86726-47.452755 46.979988-48.004317z m320.002174 0c26.504654 0 47.991014 21.490453 47.991015 47.991014 0 26.504654-21.48636 47.991014-47.991015 47.991014-26.5067 0-47.991014-21.48636-47.991014-47.991014 0-26.500561 21.484314-47.991014 47.991014-47.991014z m-415.985226-155.235551c0-126.340453 114.614387-228.752938 255.993349-228.752937 141.379984 0 255.994372 102.412484 255.994372 228.752937H254.111488z m255.993349-340.751754M512.052189-63.692369c-60.572564 0-119.333876 11.864212-174.666089 35.269272-53.431933 22.600741-101.419877 54.951543-142.621255 96.15906-41.206494 41.202401-73.558319 89.188298-96.15906 142.626371C75.201749 265.689431 63.336514 324.455859 63.336514 385.023306c0 60.572564 11.865235 119.338992 35.269271 174.666089 22.595624 53.432956 54.951543 101.419877 96.153944 142.626371 41.206494 41.202401 89.194438 73.558319 142.626371 96.153944C392.713196 821.874769 451.478602 833.738981 512.052189 833.738981c60.569494 0 119.333876-11.864212 174.661995-35.269271 53.43705-22.595624 101.419877-54.951543 142.625348-96.153944 41.206494-41.206494 73.559343-89.193415 96.160083-142.626371 23.397896-55.327096 35.264155-114.093525 35.264155-174.666089 0-60.567447-11.866259-119.333876-35.264155-174.660972-22.600741-53.438073-54.953589-101.424994-96.160083-142.626371-41.205471-41.206494-89.193415-73.558319-142.625348-96.15906-55.32812-23.404036-114.093525-35.269271-174.661995-35.269272z m0 872.221178c-57.177234 0-112.636337-11.199063-164.841326-33.277917-50.431599-21.328771-95.720062-51.868321-134.619-90.76726-38.897915-38.892799-69.437465-84.185354-90.76726-134.619-22.078855-52.199872-33.276894-107.663068-33.276894-164.841326 0-57.177234 11.197016-112.636337 33.276894-164.841325 21.329794-50.427506 51.869345-95.721085 90.76726-134.619001 38.898939-38.897915 84.187401-69.433372 134.619-90.762143 52.204989-22.083971 107.664092-33.277918 164.841326-33.277918 57.178257 0 112.636337 11.193947 164.842349 33.277918 50.426483 21.328771 95.720062 51.864228 134.619 90.762143 38.897915 38.897915 69.437465 84.190471 90.766236 134.619001 22.080901 52.204989 33.272801 107.664092 33.272801 164.841325 0 57.178257-11.1919 112.641453-33.272801 164.841326-21.328771 50.432623-51.868321 95.721085-90.766236 134.619-38.898939 38.898939-84.192517 69.438489-134.619 90.76726-52.206012 22.078855-107.664092 33.277918-164.842349 33.277917z m0 0"  horiz-adv-x="1024" />

    
    <glyph glyph-name="iconjia" unicode="&#58882;" d="M716.71969383 398.60157767h-174.00548213v-174.03323561c0-16.95947715-13.75473453-30.70059679-30.71473534-30.70059679-16.95947715 0-30.7142117 13.74111959-30.71421171 30.70059679v174.03323561h-174.00652942c-16.97361575 0-30.7142117 13.74111959-30.71421171 30.70059678 0 16.95319338 13.74216691 30.70059679 30.71421171 30.70059678h174.00548212v174.03323562c0 16.95319338 13.75473453 30.70059679 30.71421172 30.70059679 16.96000084 0 30.71473535-13.74792706 30.71473534-30.70059679v-174.03375927h174.0054821c16.97361575 0 30.71473535-13.74687975 30.71473537-30.69954949-0.00052366-16.95947715-13.74111959-30.69954948-30.71473537-30.69954947z"  horiz-adv-x="1024" />

    
    <glyph glyph-name="arrow-left" unicode="&#58883;" d="M605.09347534 384.10958862l-240.728302-240.73242187c-10.1184082-10.11016846-10.1184082-26.52044677 0-36.63143922 10.11016846-10.11923217 26.52044677-10.11923218 36.63143921 0l259.04772949 259.0477295c10.1184082 10.11016846 10.1184082 26.52044677 0 36.63143921l-259.04772949 259.04690551c-5.0559082 5.05920411-11.68643188 7.58963013-18.31530762 7.58963013s-13.25939941-2.53042602-18.31530761-7.58963012c-10.1184082-10.11016846-10.1184082-26.52044677-1e-8-36.63143921l240.72830201-240.73159791z"  horiz-adv-x="1024" />

    


  </font>
</defs>
</svg>
